<svg width="90" height="90" viewBox="0 0 90 90" fill="none" xmlns="http://www.w3.org/2000/svg">
<g filter="url(#filter0_i_11_13)">
<rect width="90" height="90" rx="17" fill="#784143"/>
</g>
<rect x="1.75" y="1.75" width="86.5" height="86.5" rx="15.25" stroke="black" stroke-width="3.5"/>
<path d="M86 72V33C86 33 79.6651 43.211 72.4621 43.211H30.5937C19.3388 43.211 4 50.864 4 58.7706V72.5C4 80.8718 10.5923 86 15.0941 86H72.4621C81.4662 86 86 79.1033 86 72Z" fill="#871830" stroke="#871830"/>
<g filter="url(#filter1_i_11_13)">
<path d="M11 51V19H20.5V11H65V17.5H77V33.5H57.5V25H29.5V51H11Z" fill="#DEDFB9"/>
</g>
<path d="M11 51V19H20.5V11H65V17.5H77V33.5H57.5V25H29.5V51H11Z" stroke="black" stroke-width="3"/>
<g filter="url(#filter2_i_11_13)">
<path d="M20.5 77V62H58V55H78V71H64.5V77H20.5Z" fill="#DEDFB9"/>
</g>
<path d="M20.5 77V62H58V55H78V71H64.5V77H20.5Z" stroke="black" stroke-width="3"/>
<defs>
<filter id="filter0_i_11_13" x="0" y="0" width="90" height="95" filterUnits="userSpaceOnUse" color-interpolation-filters="sRGB">
<feFlood flood-opacity="0" result="BackgroundImageFix"/>
<feBlend mode="normal" in="SourceGraphic" in2="BackgroundImageFix" result="shape"/>
<feColorMatrix in="SourceAlpha" type="matrix" values="0 0 0 0 0 0 0 0 0 0 0 0 0 0 0 0 0 0 127 0" result="hardAlpha"/>
<feOffset dy="5"/>
<feGaussianBlur stdDeviation="3.9"/>
<feComposite in2="hardAlpha" operator="arithmetic" k2="-1" k3="1"/>
<feColorMatrix type="matrix" values="0 0 0 0 1 0 0 0 0 1 0 0 0 0 1 0 0 0 0.25 0"/>
<feBlend mode="normal" in2="shape" result="effect1_innerShadow_11_13"/>
</filter>
<filter id="filter1_i_11_13" x="9.5" y="9.5" width="73.3" height="47.3" filterUnits="userSpaceOnUse" color-interpolation-filters="sRGB">
<feFlood flood-opacity="0" result="BackgroundImageFix"/>
<feBlend mode="normal" in="SourceGraphic" in2="BackgroundImageFix" result="shape"/>
<feColorMatrix in="SourceAlpha" type="matrix" values="0 0 0 0 0 0 0 0 0 0 0 0 0 0 0 0 0 0 127 0" result="hardAlpha"/>
<feOffset dx="7" dy="7"/>
<feGaussianBlur stdDeviation="2.15"/>
<feComposite in2="hardAlpha" operator="arithmetic" k2="-1" k3="1"/>
<feColorMatrix type="matrix" values="0 0 0 0 0 0 0 0 0 0 0 0 0 0 0 0 0 0 0.25 0"/>
<feBlend mode="normal" in2="shape" result="effect1_innerShadow_11_13"/>
</filter>
<filter id="filter2_i_11_13" x="19" y="49.2" width="64.8" height="29.3" filterUnits="userSpaceOnUse" color-interpolation-filters="sRGB">
<feFlood flood-opacity="0" result="BackgroundImageFix"/>
<feBlend mode="normal" in="SourceGraphic" in2="BackgroundImageFix" result="shape"/>
<feColorMatrix in="SourceAlpha" type="matrix" values="0 0 0 0 0 0 0 0 0 0 0 0 0 0 0 0 0 0 127 0" result="hardAlpha"/>
<feOffset dx="7" dy="-7"/>
<feGaussianBlur stdDeviation="2.15"/>
<feComposite in2="hardAlpha" operator="arithmetic" k2="-1" k3="1"/>
<feColorMatrix type="matrix" values="0 0 0 0 0 0 0 0 0 0 0 0 0 0 0 0 0 0 0.25 0"/>
<feBlend mode="normal" in2="shape" result="effect1_innerShadow_11_13"/>
</filter>
</defs>
</svg>
