<svg width="102" height="100" viewBox="0 0 102 100" fill="none" xmlns="http://www.w3.org/2000/svg">
<path d="M79.0421 81C85.4567 81 102.776 74.4351 100.852 74.4351C98.9273 74.435 80.3251 72.4656 73.9105 70.4961C67.4959 68.5266 43.1206 59.3357 53.3839 59.3357C63.6472 59.3357 77.7592 61.3052 79.0421 59.3357C80.3251 57.3662 78.5 52.5 78.5 52.5C78.5 52.5 76.5 46 73.9105 44.2363C71.321 42.4726 36.706 55.3967 45.6864 47.5188C45.6864 47.5188 50.8181 40.9538 64.2887 38.3279C77.7592 35.7019 83.5324 34.3889 86.0982 33.7324C88.664 33.0759 86.0982 29.1369 82.2494 25.198C78.4007 21.259 77.1178 20.6025 75.1934 19.2895C73.269 17.9765 63.0462 21.248 51.5 26.5C39.9538 31.752 38.6304 32.4194 36.0645 38.3279C33.4987 44.2363 36.0645 48.8318 33.4987 51.4578C33.4987 51.4578 12.3306 56.0532 3.35025 57.3662C-5.63014 58.6792 13.6135 61.9617 19.3867 61.9617H36.0645C36.0645 61.9617 40.5547 68.5266 45.6864 72.4656C50.818 76.4045 72.6276 81 79.0421 81Z" fill="#F96A1E" stroke="#F96A1E"/>
</svg>
