<svg width="100" height="100" viewBox="0 0 100 100" fill="none" xmlns="http://www.w3.org/2000/svg">
<path fill-rule="evenodd" clip-rule="evenodd" d="M50 2C22.3832 2 0 24.2613 0 51.7277C0 73.6948 14.3222 92.3364 34.1939 98.9176C36.6954 99.3663 37.5978 97.8357 37.5978 96.5195C37.5978 95.3378 37.5577 92.2068 37.5426 88.0637C23.6314 91.0651 20.6938 81.3928 20.6938 81.3928C18.4279 75.6492 15.1444 74.1186 15.1444 74.1186C10.6076 71.0324 15.4903 71.1022 15.4903 71.1022C20.5133 71.4512 23.1452 76.2275 23.1452 76.2275C27.6068 83.8258 34.8556 81.6321 37.693 80.3607C38.1492 77.1449 39.4526 74.9512 40.8763 73.7097C29.7774 72.4583 18.1071 68.1905 18.1071 49.1301C18.1071 43.7106 20.0571 39.2633 23.2404 35.7933C22.7341 34.5319 21.0046 29.4714 23.7367 22.6309C23.7367 22.6309 27.9326 21.2898 37.4825 27.7214C41.561 26.6179 45.7682 26.0546 49.995 26.0462C54.2219 26.053 58.4293 26.6163 62.5075 27.7214C72.0624 21.2848 76.2533 22.6309 76.2533 22.6309C78.9854 29.4714 77.2709 34.5319 76.7495 35.7933C79.9579 39.2633 81.8829 43.7056 81.8829 49.1301C81.8829 68.2404 70.2025 72.4384 59.0636 73.6699C60.8432 75.2055 62.4474 78.2368 62.4474 82.8735C62.4474 89.5245 62.3872 94.8891 62.3872 96.5195C62.3872 97.8507 63.2795 99.3962 65.8312 98.9076C85.6928 92.3165 100 73.6898 100 51.7277C100 24.2613 77.6168 2 50 2Z" fill="#967bb6"/>
</svg>
