<svg width="100" height="100" viewBox="0 0 100 100" fill="none" xmlns="http://www.w3.org/2000/svg">
<g clip-path="url(#clip0_18_2)">
<path d="M98.5686 40.2158L98.44 39.8298L84.8007 4.25177C84.5433 3.54407 84.0286 2.96505 83.3853 2.57903C82.7419 2.19301 82.0342 2 81.2622 2C80.4901 2 79.7824 2.32168 79.2034 2.77203C78.6244 3.22239 78.174 3.86575 77.981 4.63779L68.7809 32.8171H31.5302L22.3301 4.63779C22.137 3.93009 21.6867 3.28673 21.1077 2.77203C20.5286 2.32168 19.8209 2 19.0489 2C18.2769 2 17.5692 2.12867 16.9258 2.57903C16.2824 2.96505 15.7677 3.54407 15.5104 4.25177L1.87109 39.8298L1.74242 40.2158C-2.31077 50.767 1.1634 62.6692 10.1705 69.4888H10.2992C10.2992 69.5532 31.0798 85.1226 31.0798 85.1226L41.3736 92.9073L47.6142 97.6038C49.094 98.7619 51.2171 98.7619 52.6968 97.6038L58.9374 92.9073L69.2313 85.1226L90.1406 69.4888C99.1477 62.6692 102.558 50.767 98.5043 40.2158H98.5686Z" fill="#E24329"/>
<path d="M98.5686 40.2158L98.44 39.8298C91.6846 41.2452 85.444 44.076 80.1041 48.0648C80.0398 48.0648 63.8913 60.3531 50.1234 70.7112C60.2885 78.4316 69.1669 85.1226 69.1669 85.1226L90.0762 69.4888C99.0833 62.6692 102.493 50.767 98.44 40.2158H98.5686Z" fill="#FC6D26"/>
<path d="M31.0155 85.1226L41.3093 92.9073L47.5499 97.6038C49.0297 98.7619 51.1528 98.7619 52.6325 97.6038L58.8731 92.9073L69.167 85.1226C69.167 85.1226 60.2885 78.4316 50.1234 70.7112C39.8939 78.4316 31.0155 85.1226 31.0155 85.1226Z" fill="#FCA326"/>
<path d="M20.1426 48.0648C14.8026 44.076 8.56203 41.1808 1.80671 39.8298L1.67803 40.2158C-2.37516 50.767 1.09901 62.6692 10.1061 69.4888H10.2348C10.2348 69.5532 31.0154 85.1226 31.0154 85.1226C31.0154 85.1226 39.8938 78.4316 50.1233 70.7112C36.4197 60.3531 20.2712 48.1292 20.1426 48.0648Z" fill="#FC6D26"/>
</g>
<defs>
<clipPath id="clip0_18_2">
<rect width="100" height="100" fill="white"/>
</clipPath>
</defs>
</svg>
